# xmcd
#
# Track frame offsets: 
#        150
#        7963
#        25778
#        43094
#        56502
#        71788
#        86995
#        110839
#        126330
#        146258
#        166746
#
# Disc length: 2423 seconds
#
# Revision: 0
# Processed by: cddbd v1.5.2PL0 Copyright (c) Steve Scherf et al.
# Submitted via: ExactAudioCopy v0.99pb4
#
DISCID=9509750b
DTITLE=The Four Tops - Main Street People
DYEAR=1973
DGENRE=R&B
TTITLE0=Main Street People (Intro)
TTITLE1=I Just Can't Get You Out Of My Mind
TTITLE2=It Won't Be The First Time
TTITLE3=Sweet Understanding Love
TTITLE4=Am I My Brother's Keeper
TTITLE5=Are You Man Enough
TTITLE6=Whenever There's Blue
TTITLE7=Too Little, Too Late
TTITLE8=Peace Of Mind
TTITLE9=One Woman Man
TTITLE10=Main Street People
EXTD=
EXTT0=
EXTT1=
EXTT2=
EXTT3=
EXTT4=
EXTT5=
EXTT6=
EXTT7=
EXTT8=
EXTT9=
EXTT10=
PLAYORDER=
